<svg id="visual" viewBox="0 0 960 540" width="960" height="540" xmlns="http://www.w3.org/2000/svg" xmlns:xlink="http://www.w3.org/1999/xlink" version="1.1"><rect x="0" y="0" width="960" height="540" fill="#001220"></rect><path d="M0 117L22.8 126.5C45.7 136 91.3 155 137 162.8C182.7 170.7 228.3 167.3 274 174.8C319.7 182.3 365.3 200.7 411.2 215C457 229.3 503 239.7 548.8 231.2C594.7 222.7 640.3 195.3 686 187.3C731.7 179.3 777.3 190.7 823 182.3C868.7 174 914.3 146 937.2 132L960 118L960 541L937.2 541C914.3 541 868.7 541 823 541C777.3 541 731.7 541 686 541C640.3 541 594.7 541 548.8 541C503 541 457 541 411.2 541C365.3 541 319.7 541 274 541C228.3 541 182.7 541 137 541C91.3 541 45.7 541 22.8 541L0 541Z" fill="#ffe801"></path><path d="M0 235L22.8 230.2C45.7 225.3 91.3 215.7 137 206.2C182.7 196.7 228.3 187.3 274 196C319.7 204.7 365.3 231.3 411.2 232.7C457 234 503 210 548.8 214.7C594.7 219.3 640.3 252.7 686 265.8C731.7 279 777.3 272 823 256.3C868.7 240.7 914.3 216.3 937.2 204.2L960 192L960 541L937.2 541C914.3 541 868.7 541 823 541C777.3 541 731.7 541 686 541C640.3 541 594.7 541 548.8 541C503 541 457 541 411.2 541C365.3 541 319.7 541 274 541C228.3 541 182.7 541 137 541C91.3 541 45.7 541 22.8 541L0 541Z" fill="#f7ca08"></path><path d="M0 374L22.8 372C45.7 370 91.3 366 137 357.8C182.7 349.7 228.3 337.3 274 326.5C319.7 315.7 365.3 306.3 411.2 312.7C457 319 503 341 548.8 335C594.7 329 640.3 295 686 287.3C731.7 279.7 777.3 298.3 823 304.5C868.7 310.7 914.3 304.3 937.2 301.2L960 298L960 541L937.2 541C914.3 541 868.7 541 823 541C777.3 541 731.7 541 686 541C640.3 541 594.7 541 548.8 541C503 541 457 541 411.2 541C365.3 541 319.7 541 274 541C228.3 541 182.7 541 137 541C91.3 541 45.7 541 22.8 541L0 541Z" fill="#ebad15"></path><path d="M0 355L22.8 365C45.7 375 91.3 395 137 402.8C182.7 410.7 228.3 406.3 274 406.2C319.7 406 365.3 410 411.2 403C457 396 503 378 548.8 367.3C594.7 356.7 640.3 353.3 686 348.5C731.7 343.7 777.3 337.3 823 347.3C868.7 357.3 914.3 383.7 937.2 396.8L960 410L960 541L937.2 541C914.3 541 868.7 541 823 541C777.3 541 731.7 541 686 541C640.3 541 594.7 541 548.8 541C503 541 457 541 411.2 541C365.3 541 319.7 541 274 541C228.3 541 182.7 541 137 541C91.3 541 45.7 541 22.8 541L0 541Z" fill="#db921e"></path><path d="M0 480L22.8 472.2C45.7 464.3 91.3 448.7 137 442.8C182.7 437 228.3 441 274 449.3C319.7 457.7 365.3 470.3 411.2 472.5C457 474.7 503 466.3 548.8 456C594.7 445.7 640.3 433.3 686 437.2C731.7 441 777.3 461 823 460C868.7 459 914.3 437 937.2 426L960 415L960 541L937.2 541C914.3 541 868.7 541 823 541C777.3 541 731.7 541 686 541C640.3 541 594.7 541 548.8 541C503 541 457 541 411.2 541C365.3 541 319.7 541 274 541C228.3 541 182.7 541 137 541C91.3 541 45.7 541 22.8 541L0 541Z" fill="#c77824"></path></svg>